<svg width="18" height="13" viewBox="0 0 18 13" fill="none" xmlns="http://www.w3.org/2000/svg">
<path d="M7.13122 8.11637H11.0383C11.3521 8.11637 11.6065 7.86192 11.6065 7.54809C11.6065 7.23425 11.352 6.97986 11.0383 6.97986H7.13122C6.81738 6.97986 6.56299 7.23431 6.56299 7.54809C6.56293 7.86192 6.81738 8.11637 7.13122 8.11637Z" fill="white"/>
<path d="M4.2012 9.09336C5.05311 9.09336 5.7462 8.40028 5.7462 7.54836C5.7462 6.69644 5.05311 6.00342 4.2012 6.00342C3.34928 6.00342 2.65625 6.69644 2.65625 7.54836C2.65619 8.40023 3.34928 9.09336 4.2012 9.09336ZM4.2012 7.13987C4.42641 7.13987 4.60963 7.32315 4.60963 7.54831C4.60963 7.77352 4.42641 7.95674 4.2012 7.95674C3.97604 7.95674 3.79276 7.77352 3.79276 7.54831C3.79271 7.32315 3.97598 7.13987 4.2012 7.13987Z" fill="white"/>
<path d="M13.9683 9.09336C14.8203 9.09336 15.5133 8.40028 15.5133 7.54836C15.5133 6.69644 14.8203 6.00342 13.9683 6.00342C13.1164 6.00342 12.4233 6.69644 12.4233 7.54836C12.4233 8.40023 13.1164 9.09336 13.9683 9.09336ZM13.9683 7.13987C14.1935 7.13987 14.3768 7.32315 14.3768 7.54831C14.3768 7.77352 14.1935 7.95674 13.9683 7.95674C13.7431 7.95674 13.5599 7.77352 13.5599 7.54831C13.5599 7.32315 13.7431 7.13987 13.9683 7.13987Z" fill="white"/>
<path d="M16.063 4.30364L16.3235 4.04309C16.5455 3.82115 16.5455 3.46131 16.3235 3.23943C16.1015 3.01755 15.7418 3.01755 15.5199 3.23943L15.2529 3.50647L14.7401 1.45533C14.556 0.719347 13.8176 0.142822 13.059 0.142822H5.11023C4.35167 0.142822 3.61326 0.719347 3.42919 1.45538L2.91645 3.50647L2.64947 3.23943C2.42747 3.01755 2.06775 3.01755 1.84581 3.23943C1.62387 3.46137 1.62387 3.8212 1.84581 4.04309L2.1063 4.30364C1.27589 4.71071 0.702637 5.56461 0.702637 6.55007V8.54613C0.702637 9.3517 1.08595 10.069 1.6793 10.5266V11.5225C1.6793 12.3372 2.34207 13 3.15685 13H4.26858C5.0833 13 5.74607 12.3372 5.74607 11.5225V11.0466H12.4232V11.5225C12.4232 12.3372 13.086 13 13.9007 13H15.0124C15.8271 13 16.49 12.3372 16.49 11.5225V10.5267C17.0833 10.0691 17.4667 9.35182 17.4667 8.54613V6.55007C17.4667 5.56461 16.8934 4.71071 16.063 4.30364ZM3.99612 3.87364L4.53178 1.73106C4.58981 1.49885 4.87096 1.27933 5.11023 1.27933H13.059C13.2982 1.27933 13.5794 1.49885 13.6374 1.73106L14.1731 3.8737C14.1879 3.93313 14.185 3.98371 14.1652 4.00911C14.1453 4.03451 14.0969 4.04969 14.0357 4.04969H4.13351C4.07232 4.04969 4.02395 4.03451 4.00403 4.00911C3.98427 3.98371 3.98133 3.93313 3.99612 3.87364ZM1.83921 6.55007C1.83921 5.79812 2.45106 5.18626 3.20302 5.18626H14.9663C15.7183 5.18626 16.3301 5.79812 16.3301 6.55007V8.54613C16.3301 9.29814 15.7183 9.91 14.9663 9.91H3.20302C2.45106 9.91 1.83921 9.29814 1.83921 8.54613V6.55007V6.55007ZM4.60951 11.5225C4.60951 11.7072 4.45332 11.8634 4.26858 11.8634H3.15679C2.97199 11.8634 2.81581 11.7072 2.81581 11.5225V11.0165C2.94208 11.0362 3.07128 11.0466 3.20296 11.0466H4.60945V11.5225H4.60951ZM15.3534 11.5225C15.3534 11.7072 15.1972 11.8634 15.0124 11.8634H13.9007C13.7159 11.8634 13.5598 11.7072 13.5598 11.5225V11.0466H14.9664C15.098 11.0466 15.2272 11.0361 15.3535 11.0165V11.5225H15.3534Z" fill="white"/>
</svg>
