<svg width="80" height="82" viewBox="0 0 80 82" fill="none" xmlns="http://www.w3.org/2000/svg">
<path d="M80 41C80 49.109 77.654 57.0359 73.2588 63.7784C68.8635 70.5208 62.6164 75.7759 55.3073 78.879C47.9983 81.9822 39.9556 82.7942 32.1964 81.2122C24.4372 79.6302 17.3098 75.7253 11.7157 69.9914C6.12165 64.2574 2.31202 56.9519 0.768607 48.9987C-0.774802 41.0455 0.0173313 32.8017 3.04484 25.31C6.07234 17.8182 11.1992 11.4149 17.7772 6.90975C24.3552 2.40461 32.0888 0 40 0C45.2529 0 50.4543 1.0605 55.3073 3.12094C60.1604 5.18138 64.5699 8.20142 68.2843 12.0086C71.9986 15.8158 74.945 20.3356 76.9552 25.31C78.9654 30.2843 80 35.6158 80 41ZM63.1249 28.9698C63.1223 28.1081 62.7871 27.2825 62.1927 26.6731C61.5982 26.0638 60.7927 25.7203 59.952 25.7176H26.8233L24.6204 20.5388C24.4695 20.1853 24.2214 19.8845 23.9065 19.673C23.5916 19.4615 23.2235 19.3485 22.8471 19.3477H15.6474C15.1328 19.3477 14.6393 19.5572 14.2755 19.9302C13.9116 20.3031 13.7072 20.8089 13.7072 21.3364C13.7072 21.8638 13.9116 22.3696 14.2755 22.7425C14.6393 23.1155 15.1328 23.325 15.6474 23.325H21.5738L30.5924 44.5371C30.4484 44.502 30.3009 44.4846 30.1528 44.4853C28.5971 44.4853 27.1051 45.1187 26.0051 46.2463C24.905 47.3739 24.287 48.9032 24.287 50.4978C24.287 52.0924 24.905 53.6217 26.0051 54.7493C27.1051 55.8768 28.5971 56.5103 30.1528 56.5103H30.365C29.6421 56.9926 29.0905 57.7014 28.7925 58.5312C28.4945 59.3609 28.4661 60.2671 28.7115 61.1148C28.9569 61.9624 29.463 62.7061 30.1543 63.2349C30.8456 63.7638 31.6851 64.0495 32.5477 64.0495C33.4103 64.0495 34.2498 63.7638 34.9411 63.2349C35.6324 62.7061 36.1385 61.9624 36.3839 61.1148C36.6293 60.2671 36.6009 59.3609 36.3029 58.5312C36.0049 57.7014 35.4533 56.9926 34.7303 56.5103H52.1713C51.4483 56.9926 50.8967 57.7014 50.5987 58.5312C50.3008 59.3609 50.2724 60.2671 50.5177 61.1148C50.7631 61.9624 51.2692 62.7061 51.9605 63.2349C52.6518 63.7638 53.4913 64.0495 54.3539 64.0495C55.2165 64.0495 56.0561 63.7638 56.7474 63.2349C57.4387 62.7061 57.9447 61.9624 58.1901 61.1148C58.4355 60.2671 58.4071 59.3609 58.1091 58.5312C57.8112 57.7014 57.2596 56.9926 56.5366 56.5103H59.3912C59.654 56.524 59.9167 56.4829 60.1635 56.3893C60.4102 56.2957 60.6359 56.1516 60.8266 55.9658C61.0173 55.7801 61.1692 55.5565 61.273 55.3086C61.3768 55.0608 61.4303 54.7939 61.4303 54.5242C61.4303 54.2545 61.3768 53.9877 61.273 53.7398C61.1692 53.492 61.0173 53.2684 60.8266 53.0826C60.6359 52.8969 60.4102 52.7528 60.1635 52.6592C59.9167 52.5656 59.654 52.5244 59.3912 52.5382H30.1478C29.6205 52.5382 29.1148 52.3235 28.742 51.9413C28.3691 51.5592 28.1597 51.0408 28.1597 50.5004C28.1597 49.9599 28.3691 49.4416 28.742 49.0594C29.1148 48.6772 29.6205 48.4625 30.1478 48.4625C30.315 48.4623 30.4814 48.4397 30.6429 48.3952L59.9621 45.2776C60.8218 45.1671 61.614 44.7431 62.1938 44.0832C62.7736 43.4233 63.1023 42.5715 63.1199 41.6836L63.1249 28.9698Z" fill="white"/>
</svg>
