<svg width="38" height="32" viewBox="0 0 38 32" fill="none" xmlns="http://www.w3.org/2000/svg">
<path d="M13.3857 24.0896H32.5998C33.2419 24.0896 33.8016 23.5687 33.8016 22.8688C33.8016 22.1689 33.2419 21.648 32.5998 21.648H13.6655C12.7271 21.648 12.1508 20.9969 12.0026 20.004L11.7392 18.295H32.6326C35.0364 18.295 36.2713 16.8301 36.6172 14.5026L37.9342 5.89217C37.9673 5.68064 38 5.42014 38 5.27368C38 4.4924 37.4072 3.95529 36.5019 3.95529H9.61528L9.30246 1.88813C9.1378 0.634816 8.67683 0 6.99739 0H1.21839C0.559811 0 0 0.569745 0 1.22081C0 1.88813 0.559811 2.4578 1.21839 2.4578H6.78335L9.41767 20.3296C9.76343 22.6409 10.9983 24.0896 13.3857 24.0896ZM35.2009 6.41303L34.0323 14.2096C33.9004 15.2187 33.3572 15.8372 32.3857 15.8372L11.377 15.8535L9.97748 6.41303H35.2009ZM14.6863 32C16.1681 32 17.3536 30.8443 17.3536 29.3632C17.3536 27.8982 16.1681 26.7263 14.6863 26.7263C13.1881 26.7263 12.0026 27.8982 12.0026 29.3632C12.0026 30.8443 13.1881 32 14.6863 32ZM30.0807 32C31.5789 32 32.7644 30.8443 32.7644 29.3632C32.7644 27.8982 31.5789 26.7263 30.0807 26.7263C28.5988 26.7263 27.397 27.8982 27.397 29.3632C27.397 30.8443 28.5988 32 30.0807 32Z" fill="white"/>
</svg>
