<svg width="18" height="18" viewBox="0 0 18 18" fill="none" xmlns="http://www.w3.org/2000/svg">
<path d="M7.75862 2.66455C3.47369 2.66455 0 5.77886 0 9.62062C0 11.0364 0.472965 12.3526 1.28328 13.4512C1.17683 14.7205 0.870517 16.5084 0 17.3792C0 17.3792 2.65996 17.0059 4.46183 15.9178C5.46269 16.3396 6.57962 16.5767 7.75862 16.5767C12.0435 16.5767 15.5172 13.4624 15.5172 9.62062C15.5172 5.77886 12.0435 2.66455 7.75862 2.66455Z" fill="#FFD748"/>
<path d="M18 6.95607C18 3.11431 14.5263 0 10.2413 0C7.1472 0 4.47668 1.62434 3.23096 3.97365C4.50554 3.15093 6.06813 2.66462 7.75858 2.66462C12.0435 2.66462 15.5172 5.77893 15.5172 9.62069C15.5172 11.0902 15.0076 12.4523 14.1402 13.5754C15.8778 14.4149 18 14.7147 18 14.7147C17.1294 13.8442 16.8231 12.0563 16.7167 10.7867C17.527 9.68803 18 8.37186 18 6.95607Z" fill="#00FFD1"/>
<path d="M3.724 10.5518C4.2382 10.5518 4.65504 10.1349 4.65504 9.62073C4.65504 9.10654 4.2382 8.6897 3.724 8.6897C3.20981 8.6897 2.79297 9.10654 2.79297 9.62073C2.79297 10.1349 3.20981 10.5518 3.724 10.5518Z" fill="#126774"/>
<path d="M7.75867 10.5518C8.27287 10.5518 8.68971 10.1349 8.68971 9.62073C8.68971 9.10654 8.27287 8.6897 7.75867 8.6897C7.24447 8.6897 6.82764 9.10654 6.82764 9.62073C6.82764 10.1349 7.24447 10.5518 7.75867 10.5518Z" fill="#126774"/>
<path d="M11.7933 10.5518C12.3075 10.5518 12.7244 10.1349 12.7244 9.62073C12.7244 9.10654 12.3075 8.6897 11.7933 8.6897C11.2791 8.6897 10.8623 9.10654 10.8623 9.62073C10.8623 10.1349 11.2791 10.5518 11.7933 10.5518Z" fill="#126774"/>
</svg>
