<svg width="188" height="227" viewBox="0 0 188 227" fill="none" xmlns="http://www.w3.org/2000/svg">
<path d="M89.1674 4.43393C81.3857 12.3129 68.3027 19.7542 49.5293 27.0495C35.3277 32.594 17.3324 37.5062 6.97304 38.7221C2.98491 39.2085 1.4772 40.0353 1.13675 42.0293C0.942208 42.8562 0.942208 67.5631 1.03948 96.8418C1.18539 143.873 1.33129 150.682 2.01219 154.962C3.71444 165.029 6.72986 174.562 10.2803 180.982C19.8615 198.247 34.7927 208.899 61.445 217.41C70.0049 220.182 92.5233 226.213 94.1769 226.213C94.9064 226.213 100.402 224.9 106.384 223.295C112.367 221.69 117.571 220.377 117.96 220.377C118.3 220.377 119.759 220.96 121.17 221.641C130.265 226.261 142.326 227.575 152.442 224.997C168.346 220.96 180.213 209.725 185.515 193.627C186.828 189.736 186.877 189.007 186.925 180.738C186.925 172.957 186.779 171.546 185.758 167.947L184.639 163.959L185.758 158.463L186.925 153.016L187.071 96.9877L187.217 41.008L185.904 39.9866C185.174 39.403 184.007 38.9653 183.278 38.9653C178.365 38.9653 161.537 34.8799 148.454 30.5027C126.374 23.0614 108.719 13.772 99.4782 4.72574C94.4201 -0.186478 93.7878 -0.235107 89.1674 4.43393ZM97.9218 13.0911C104.536 18.9274 120.343 27.5845 134.155 32.9831C148.6 38.6248 166.206 43.7802 176.469 45.3366L180.408 45.9688L180.165 97.2795C179.97 146.061 179.776 153.502 178.9 153.162C178.706 153.065 177.539 151.849 176.323 150.39C175.107 148.979 172.724 146.645 171.07 145.234L168.103 142.705L168.152 101.803C168.249 65.4718 168.152 60.7541 167.471 59.4409C166.644 57.836 166.741 57.836 159.689 56.7173C146.314 54.5774 127.881 48.4979 114.896 41.9807C108.573 38.7708 101.959 34.3449 98.5541 30.989C94.7605 27.2441 93.8364 27.2927 89.5079 31.3295C87.7083 33.0317 84.8875 35.3176 83.2338 36.4362C70.8317 44.8502 46.1734 53.8965 27.4 56.9605C23.1201 57.69 21.9042 58.0305 21.2233 58.9059C20.3965 59.9273 20.3479 62.2618 20.3479 98.9818C20.3479 141.003 20.5424 145.137 22.7796 154.037C25.3573 164.348 29.3455 171.595 36.1058 178.307C46.0275 188.18 56.6787 192.946 85.9088 200.63L94.3228 202.868L97.2409 202.041C98.7973 201.603 100.208 201.36 100.256 201.457C100.354 201.555 101.424 203.16 102.64 205.056C103.807 206.904 106.093 209.823 107.649 211.525C109.205 213.178 110.373 214.638 110.275 214.735C110.178 214.783 106.482 215.805 102.105 216.972L94.1769 219.063L81.9207 215.756C68.0109 212.011 57.3596 208.558 50.9397 205.786C26.0869 194.989 13.782 179.766 9.30755 154.232C8.62665 150.195 8.48074 143.192 8.33484 97.8145L8.14029 46.0175L13.1498 45.0934C24.6278 43.0507 41.0667 38.2358 54.636 32.8858C68.5459 27.4386 84.9361 18.2465 91.4046 12.3129C94.3228 9.58931 93.8364 9.54068 97.9218 13.0911ZM97.4355 39.6948C109.059 49.1302 137.268 60.3164 158.522 63.9641L160.321 64.2559L160.662 76.5607C161.002 89.9842 160.808 137.453 160.419 137.89C160.273 138.036 158.668 137.599 156.868 136.918C150.497 134.632 141.256 133.708 135.031 134.729L132.696 135.118L119.273 123.689L105.898 112.211L115.333 102.775L124.769 93.34L128.708 94.41C132.113 95.3341 132.794 95.3827 133.912 94.7991C134.739 94.41 137.317 90.6651 141.499 83.9534C148.843 72.0862 148.795 72.2808 144.661 68.244C142.618 66.2499 141.694 65.715 140.478 65.715C139.359 65.715 136.344 67.3199 129.389 71.6485C124.088 74.8585 119.419 77.8739 118.981 78.263C117.862 79.187 117.862 81.4243 118.932 85.2179L119.759 88.136L110.081 97.8145L100.451 107.444L97.095 104.721C93.9823 102.143 93.7392 101.851 94.031 100.489C94.7119 97.3768 94.8578 89.741 94.2742 87.1147C92.2315 77.6307 83.7202 68.8276 74.3335 66.3958C67.6704 64.6936 56.9706 66.2499 54.7333 69.2167C53.0797 71.4053 53.8579 72.6212 62.2232 81.0352L69.9563 88.8169L66.6977 92.1241L63.3905 95.3827L55.6088 87.6497C50.8425 82.8834 47.292 79.7707 46.4652 79.5761C43.5471 78.8466 41.6989 81.5216 40.4831 88.3306C38.8781 97.1336 41.6503 105.45 48.4107 112.259C52.2043 116.004 56.6787 118.582 61.591 119.701C64.8982 120.479 70.6858 120.479 73.8958 119.701C76.2303 119.117 76.4735 119.166 77.203 120.09C77.6407 120.625 78.9053 122.132 80.0239 123.446L82.0666 125.877L78.4189 129.476L74.8199 133.027L71.2695 129.525C68.4972 126.801 67.4272 126.023 66.3086 126.023C65.1414 126.023 63.2932 127.628 54.3442 136.529C41.553 149.32 41.018 150.098 41.018 156.664C41.018 162.062 41.8935 164.348 45.2494 167.801C48.362 170.963 51.8638 172.422 56.3383 172.422C62.5637 172.422 64.12 171.449 75.9385 159.679C81.5316 154.135 86.3952 149.028 86.7843 148.298C87.7083 146.499 87.3193 145.721 83.3798 141.684L79.9266 138.182L83.3798 134.778L86.7843 131.325L95.4901 141.587C100.305 147.277 104.293 152.092 104.39 152.287C104.488 152.53 103.855 153.746 103.029 154.962C95.9278 165.272 93.496 180.349 96.9491 192.265L97.63 194.551L95.8305 194.891C94.566 195.135 92.4746 194.843 88.681 193.87C71.4154 189.444 60.6669 185.797 53.4688 181.857C42.3312 175.729 34.7927 167.023 30.9991 155.934C27.935 146.937 27.9837 147.569 27.7891 104.04L27.5946 64.3531L29.6859 64.0127C34.5495 63.2345 47.8757 59.7814 54.782 57.4469C70.4913 52.1942 85.0334 44.9475 92.1828 38.7221C93.2042 37.8467 94.2742 37.263 94.5173 37.409C94.8092 37.5549 96.1223 38.6248 97.4355 39.6948ZM70.394 73.0103C76.8626 74.0803 82.8448 78.6521 85.7143 84.6342C87.757 88.9628 88.0974 95.0423 86.4924 99.7113C85.2279 103.554 85.5197 104.478 89.0701 107.444C90.4806 108.612 92.426 110.217 93.4473 111.092L95.2469 112.648L91.2101 116.685L87.1733 120.673L83.6716 116.588C78.7594 110.752 78.5162 110.606 74.7226 111.822C70.2481 113.281 68.0109 113.524 64.5577 112.892C55.9492 111.335 48.9943 104.332 47.6325 95.8691C47.3407 94.2155 47.292 92.2214 47.438 91.4433C47.7298 89.9842 47.7298 89.9842 53.8579 96.015C60.6182 102.727 61.8341 103.359 65.725 102.192C68.5945 101.365 75.9385 94.021 76.7653 91.1514C77.9326 87.2606 77.3003 86.0447 70.5886 79.2357C64.5091 73.1076 64.3632 72.8644 66.795 72.5726C67.0868 72.5726 68.6918 72.7671 70.394 73.0103ZM134.642 81.1325L130.702 87.4551L128.806 86.9201C127.103 86.4824 126.763 86.1906 126.325 84.537C126.033 83.467 125.985 82.4943 126.131 82.2997C126.617 81.8134 138.289 74.6153 138.435 74.7126C138.484 74.7612 136.782 77.6793 134.642 81.1325ZM112.707 127.482C118.835 132.686 123.893 137.112 123.893 137.307C123.942 137.501 122.483 138.377 120.683 139.252C118.835 140.128 115.577 142.219 113.437 143.873L109.449 146.888L101.035 136.918C96.3655 131.422 92.4746 126.704 92.3774 126.412C92.1342 125.731 100.208 117.707 100.937 117.852C101.229 117.95 106.53 122.278 112.707 127.482ZM69.7131 155.642C62.2232 163.084 60.6669 164.445 58.7701 164.932C54.8792 166.002 50.6966 164.154 48.7511 160.457C47.827 158.706 47.8757 155.059 48.8484 153.113C49.2861 152.238 53.3715 147.763 57.9433 143.143L66.3086 134.778L72.3881 140.857L78.4675 146.985L69.7131 155.642ZM151.421 142.803C159.835 145.137 168.395 151.168 173.21 158.22C175.496 161.576 178.268 167.801 179.095 171.692C179.922 175.291 180.165 183.316 179.581 186.672C178.219 194.551 174.329 202.138 168.735 207.78C149.67 226.796 117.522 220.96 106.19 196.399C103.661 190.903 102.883 187.061 102.883 180.009C102.931 174.854 103.126 173.249 104.196 169.552C108.573 154.962 119.905 144.943 135.615 141.879C138.046 141.441 148.552 142.024 151.421 142.803Z" fill="white"/>
<path d="M150.984 170.137C145.634 175.73 138.679 182.88 135.518 186.09L129.827 191.926L125.985 188.133C122.678 184.923 121.851 184.388 120.44 184.388C118.349 184.388 116.987 185.749 116.987 187.841C116.987 189.057 117.863 190.175 122.24 194.601C127.687 200.048 129.244 201.07 131.043 200.389C131.627 200.194 139.652 192.218 148.941 182.637C164.164 166.927 165.769 165.128 165.769 163.669C165.769 161.675 164.164 160.07 162.219 160.07C160.954 160.07 159.398 161.48 150.984 170.137Z" fill="white"/>
</svg>
