<svg width="264" height="264" viewBox="0 0 264 264" fill="none" xmlns="http://www.w3.org/2000/svg">
<path d="M128.34 12.6631C127.561 12.9549 123.816 15.3381 120.071 17.9158C116.327 20.5421 110.977 23.9952 108.156 25.6975C105.335 27.3511 102.563 29.1992 101.979 29.7342C99.6931 31.7769 101.298 35.911 104.411 35.911C106.308 35.911 114.916 30.6583 129.02 20.8825C130.188 20.0557 131.55 19.3748 131.987 19.3748C132.425 19.3748 135.635 21.3689 139.088 23.8007C162.92 40.5314 190.982 52.6903 218.121 58.0402C225.806 59.5479 226.632 59.8884 227.265 61.8824C229.21 68.1078 229.745 101.618 228.14 113.242C226.195 126.908 223.131 139.262 218.948 150.205C217.878 153.026 216.565 156.576 215.981 158.084L214.911 160.856L215.933 162.218C217.197 163.92 220.358 164.358 221.574 162.996C222.547 161.926 226.681 151.664 228.675 145.293C232.177 134.301 234.852 121.364 236.165 108.865C237.089 100.11 236.943 77.8836 235.922 69.0805C234.852 59.8884 234.365 58.2348 232.128 55.6571C229.891 53.128 228.043 52.3012 221.38 50.988C203.968 47.4863 186.751 41.6986 171.625 34.306C161.704 29.4424 157.521 27.0106 147.648 20.3962C143.028 17.2835 138.359 14.2194 137.289 13.6358C135.051 12.274 130.577 11.7876 128.34 12.6631Z" fill="white"/>
<path d="M81.4069 20.0066C80.0451 20.6875 79.656 21.7575 78.0024 29.5879C76.2515 37.8559 74.452 41.99 71.1447 45.1999C67.7402 48.5558 63.7521 50.258 54.6572 52.2035C46.5837 53.9057 46.9241 53.7598 46.0487 55.5593C45.3678 57.0184 45.3678 57.3102 46.0973 58.672C46.9728 60.3256 46.7782 60.277 53.4413 61.6874C63.0712 63.7301 66.573 64.9947 70.0747 67.8642C73.7711 70.831 75.8138 75.3054 78.051 85.2758C79.7046 92.6198 80.0937 93.5438 81.8932 94.2734C83.5955 95.0029 86.1245 93.8357 86.5136 92.182C86.6109 91.5984 87.2918 88.5344 87.9727 85.4217C90.1127 75.5973 91.9122 71.5605 95.4626 68.3505C98.8671 65.2865 102.661 63.8274 113.458 61.4929C116.473 60.8606 119.294 59.9852 119.732 59.5475C120.705 58.5748 120.753 55.5593 119.732 54.5866C119.343 54.1975 115.744 53.1276 111.756 52.2035C100.861 49.7717 97.7485 48.4099 94.344 44.6163C91.3772 41.3577 89.3345 35.9105 87.4377 25.9402C86.2704 20.0066 84.6168 18.4016 81.4069 20.0066ZM89.5777 50.4526C91.6204 52.4953 93.4685 53.8085 96.338 55.1703L100.326 57.0671L96.338 58.9638C91.0854 61.4443 87.535 64.9947 84.9573 70.296L83.0605 74.2355L81.2123 70.296C78.7319 65.0919 75.2301 61.5415 69.8802 58.9152L65.9407 57.0184L69.8802 55.1703C75.1815 52.6898 78.7319 49.0908 81.2123 43.7895L83.1091 39.85L84.9573 43.7409C86.1732 46.3186 87.7295 48.5558 89.5777 50.4526Z" fill="white"/>
<path d="M128.096 39.2186C127.172 39.6563 126.102 40.629 125.665 41.3586C125.032 42.5745 125.032 42.8663 125.665 44.0335C126.783 46.0276 128.486 46.7085 130.625 46.0276C132.279 45.5412 132.571 45.6385 139.331 49.7725C148.28 55.2197 167.2 64.6064 169.242 64.6064C172.306 64.6064 174.106 60.5697 171.917 58.5756C171.431 58.1379 168.026 56.3384 164.379 54.6361C156.743 51.0857 152.803 48.9944 143.66 43.4985C140.061 41.3586 136.316 39.3159 135.392 38.9754C132.96 38.1486 130.09 38.1972 128.096 39.2186Z" fill="white"/>
<path d="M31.3609 61.1527C29.221 61.6877 28.4914 63.4386 27.8105 69.7126C26.8378 78.7588 26.9837 104.487 28.0537 112.998C30.5828 132.842 35.3491 149.427 42.9849 165.039C50.0857 179.532 52.9066 182.547 56.1165 179.143C57.7215 177.441 57.527 175.641 55.4843 172.431C53.1497 168.784 48.4321 159.348 45.903 153.366C36.2245 130.021 32.1391 97.8241 35.3977 69.9558C35.7868 66.8917 35.8841 63.9249 35.6895 63.39C35.0086 61.5904 33.2577 60.715 31.3609 61.1527Z" fill="white"/>
<path d="M183.495 64.1198C183.058 64.363 182.425 65.2384 182.133 66.0166C181.647 67.1839 181.647 67.6702 182.279 68.8861C182.912 70.102 183.738 70.5884 186.803 71.6097C191.472 73.1661 191.909 73.1661 193.563 71.7556C194.536 70.9288 194.876 70.1993 194.827 68.9834C194.779 66.8921 194.049 66.2112 190.158 64.8007C186.705 63.5848 184.76 63.3903 183.495 64.1198Z" fill="white"/>
<path d="M206.887 71.2702C204.261 72.243 203.58 75.5502 205.574 77.6415C206.644 78.7601 206.644 79.052 206.644 90.2868C206.644 96.6581 206.352 104.099 206.012 106.92C205.088 114.507 202.802 125.402 200.759 131.968C198.424 139.555 198.23 141.063 199.543 142.376C200.856 143.689 203.531 143.737 204.65 142.522C206.693 140.236 211.021 123.991 212.723 112.465C213.988 103.467 214.815 89.46 214.426 83.0887C214.085 77.7874 212.869 74.0425 210.924 72.243C209.903 71.3675 207.908 70.8812 206.887 71.2702Z" fill="white"/>
<path d="M52.1283 73.8472C51.6906 74.1391 50.9124 75.3549 50.4261 76.6681C49.6479 78.6622 49.5506 80.3644 49.5993 89.6539C49.6479 100.694 50.1343 107.065 51.7879 116.598C55.2897 137.317 63.12 156.285 74.209 171.07C78.4889 176.809 88.0215 186.585 93.566 191.059C95.8519 192.908 99.8886 195.826 102.564 197.625C111.123 203.316 128.049 211 131.988 211C135.101 211 149.838 204.872 151.637 202.781C152.95 201.321 152.853 198.938 151.491 197.771C149.886 196.507 147.941 196.652 144.731 198.306C140.256 200.543 133.399 203.218 131.988 203.218C129.362 203.218 116.814 197.528 109.275 192.956C100.278 187.46 88.2647 176.858 82.0879 168.93C69.5399 152.832 61.7096 133.377 58.2564 109.595C57.6242 105.217 57.381 100.646 57.381 91.3561C57.381 84.5471 57.4783 78.2245 57.5755 77.3004C57.8673 74.5282 54.5601 72.4368 52.1283 73.8472Z" fill="white"/>
<path d="M172.405 87.5139C171.481 87.8057 170.071 88.4866 169.244 89.0702C168.369 89.6538 161.268 96.706 153.437 104.731C128.487 130.216 129.509 129.292 127.32 129.292C125.521 129.292 125.083 128.952 117.885 121.559C113.751 117.279 109.617 113.437 108.693 112.999C106.115 111.734 102.37 111.54 99.3545 112.513C97.2145 113.242 95.9987 114.118 92.9346 117.328C90.7946 119.516 88.6547 122.24 88.071 123.456C86.7092 126.471 86.7092 130.8 88.1683 133.572C89.5301 136.247 119.198 166.693 121.97 168.298C124.937 169.951 129.946 169.903 132.962 168.103C136.22 166.206 188.747 112.415 190.498 109.303C192.151 106.239 192.297 101.959 190.887 98.846C189.622 96.0738 183.64 89.8484 180.917 88.5352C178.339 87.2221 174.74 86.7843 172.405 87.5139ZM180.673 98.0192C184.078 101.424 184.953 103.32 184.224 105.266C183.981 105.898 171.579 118.884 156.647 134.156C131.503 159.787 129.363 161.878 127.855 161.878C126.98 161.878 125.91 161.732 125.521 161.586C125.131 161.44 117.982 154.339 109.665 145.828C94.9287 130.702 94.5396 130.216 94.5396 128.368C94.5396 126.666 94.88 126.033 97.5064 123.261C100.911 119.613 102.954 118.641 105.094 119.711C105.823 120.1 109.617 123.65 113.459 127.59C121.095 135.42 123.04 136.733 127.369 136.733C131.357 136.782 134.226 135.177 138.895 130.362C141.084 128.027 149.838 119.078 158.301 110.47C173.184 95.247 173.719 94.7606 175.518 94.7606C177.172 94.7606 177.755 95.1497 180.673 98.0192Z" fill="white"/>
<path d="M197.209 155.41C196.479 156.091 195.896 157.793 194.972 162.267C192.783 172.578 190.643 177.734 187.19 180.798C183.834 183.716 178.29 185.904 170.411 187.412C163.018 188.823 162.143 189.358 162.143 192.422C162.143 194.61 163.553 195.437 169.438 196.653C182.91 199.522 187.579 202.149 190.886 208.666C192.248 211.39 194.048 217.615 195.264 224.083C195.993 227.877 197.355 229.628 199.543 229.628C201.829 229.628 202.948 228.266 203.532 224.57C204.31 219.414 206.304 212.265 207.666 209.347C209.611 205.213 212.286 202.489 216.274 200.592C219.484 199.085 231.205 195.923 233.637 195.923C235.048 195.923 237.042 193.783 237.042 192.324C237.042 189.844 235.291 188.774 229.503 187.607C211.119 184.008 207.909 180.7 203.969 161.587C202.899 156.334 201.781 154.583 199.543 154.583C198.814 154.583 197.793 154.972 197.209 155.41ZM201.489 179.047C204.358 184.98 209.222 189.406 215.204 191.498L216.858 192.081L212.724 194.075C206.401 197.139 202.121 202.003 199.835 208.812C199.592 209.59 199.3 209.298 198.425 207.11C195.701 200.495 191.178 195.923 184.71 193.297L182.083 192.227L185.78 190.573C191.616 187.996 195.993 183.424 198.425 177.345C198.96 176.031 199.398 175.01 199.446 175.01C199.495 175.01 200.37 176.81 201.489 179.047Z" fill="white"/>
<path d="M61.3215 186.536C59.9111 187.266 59.2302 188.968 59.6679 190.719C59.8625 191.302 61.0783 193.053 62.4401 194.61C64.5315 196.895 65.2124 197.382 66.5255 197.382C68.4223 197.382 70.2219 195.68 70.2219 193.88C70.2219 193.151 69.4437 191.643 68.3251 190.232C65.0665 186.147 63.5588 185.32 61.3215 186.536Z" fill="white"/>
<path d="M75.3277 202.489C72.6528 205.115 74.2577 207.401 83.5472 214.308C95.6088 223.305 109.324 230.455 123.574 235.124C131.453 237.701 132.134 237.701 139.478 235.318C147.6 232.643 154.604 229.725 162.045 225.786C169.438 221.895 177.463 216.739 178.144 215.426C178.97 213.919 178.776 212.07 177.706 211C175.955 209.25 174.107 209.736 168.514 213.384C162.483 217.274 154.847 221.408 149.011 223.889C143.369 226.321 133.739 229.482 132.086 229.482C131.356 229.482 128.681 228.801 126.201 228.023C110.151 222.819 95.2197 214.551 82.4772 203.851C78.9268 200.884 77.2245 200.544 75.3277 202.489Z" fill="white"/>
</svg>
