<svg width="236" height="190" viewBox="0 0 236 190" fill="none" xmlns="http://www.w3.org/2000/svg">
<path d="M146.129 0.447762C128.085 3.46318 113.689 15.8167 108.291 32.8878C102.892 50.0076 108.048 68.8782 121.471 81.329C126.821 86.2412 133.192 89.7916 140.779 91.9802C144.184 93.0016 145.692 93.1475 152.938 93.1475C160.671 93.1475 161.498 93.0502 165.486 91.7857C182.557 86.3871 193.938 74.5686 198.267 57.8866C199.629 52.6339 199.92 44.3658 198.948 38.9186C195.64 20.6316 181.877 5.79769 164.27 1.42048C159.796 0.350494 150.117 -0.184502 146.129 0.447762ZM160.963 8.76447C172.295 11.099 182.557 18.978 187.664 29.3374C194.96 44.2686 192.479 61.4856 181.196 73.3041C173.365 81.6208 164.076 85.6089 152.646 85.6089C142.141 85.6089 132.9 81.8153 125.41 74.3254C118.504 67.3705 114.759 58.9565 114.03 48.5485C113.154 36.3409 119.428 23.0634 129.69 15.4762C135.916 10.9044 144.962 7.88903 152.695 7.84039C154.689 7.84039 158.434 8.22948 160.963 8.76447Z" fill="white"/>
<path d="M150.703 14.552C149.827 15.2329 149.584 16.0597 149.389 18.3456L149.195 21.2151L146.909 22.0419C143.942 23.0633 140.878 25.7382 139.614 28.3646C138.835 29.9696 138.592 31.4286 138.592 34.444C138.592 41.4962 139.954 43.2471 150.654 49.9102C159.992 55.7465 160.478 56.2328 160.478 58.9564C160.43 62.7987 157.949 64.6955 152.94 64.6955C147.93 64.6955 145.45 62.7987 145.401 58.9564C145.401 55.1142 141.559 53.0229 139.176 55.6006C137.522 57.3515 137.668 62.0691 139.419 65.2791C140.878 68.0027 144.185 70.629 147.249 71.6017L149.292 72.234V74.7631C149.292 77.973 149.584 78.6539 151.286 79.578C154.35 81.1343 156.587 79.1889 156.587 74.909V72.234L158.922 71.3586C162.083 70.2399 164.807 68.0513 166.412 65.2791C167.579 63.285 167.774 62.4582 167.774 59.1024C167.774 55.6979 167.579 54.9197 166.363 52.7311C164.661 49.8129 163.834 49.1807 154.739 43.5389C150.946 41.2044 147.347 38.724 146.86 38.0431C145.742 36.6813 145.596 33.4713 146.52 31.6232C147.249 30.0668 150.946 28.2187 153.183 28.2187C155.372 28.2673 158.679 29.7264 159.7 31.1854C160.186 31.8663 160.478 33.2768 160.478 34.8331C160.478 38.0917 161.791 39.8912 164.175 39.8912C166.898 39.8912 167.774 38.5781 167.774 34.3468C167.774 32.2068 167.482 30.0182 167.044 28.9968C165.926 26.3219 162.424 23.0633 159.603 22.0906L157.171 21.2151L156.977 18.3943C156.733 15.0384 155.663 13.628 153.426 13.628C152.551 13.628 151.335 14.017 150.703 14.552Z" fill="white"/>
<path d="M3.57793 97.7677C0.854333 98.8863 0.951604 97.1354 0.951604 138.622C1.00024 167.852 1.09751 176.995 1.58387 177.579C2.94567 179.378 3.91838 179.476 21.865 179.476H39.4711L40.8815 178.065C42.1947 176.752 42.292 176.363 42.292 172.959V169.262H49.2955H56.2991L80.8115 177.093C122.395 190.419 120.352 189.884 132.268 189.884C138.688 189.884 141.266 189.641 145.156 188.814C152.16 187.257 159.066 184.972 162.033 183.172C163.444 182.345 179.931 169.116 198.656 153.845C232.458 126.268 232.749 126.025 234.16 123.01C235.473 120.335 235.619 119.508 235.57 115.568C235.57 112.067 235.327 110.705 234.5 108.954C231.242 102.291 224.481 98.789 217.964 100.491C214.56 101.367 214.219 101.61 194.522 117.611L177.742 131.229L177.207 128.457C176.04 122.815 173.511 119.167 169.037 116.833L166.556 115.52L144.427 115.277C120.255 115.033 120.79 115.082 118.893 112.164C117.726 110.413 110.722 105.987 105.907 103.896C92.0463 98.0109 76.872 98.4486 60.8222 105.355L55.8127 107.495H49.101H42.3892L42.1947 103.604C42.0488 100.345 41.8542 99.5672 40.9302 98.6431C39.8115 97.5245 39.8115 97.5245 22.2054 97.4272C12.5269 97.3786 4.11293 97.5245 3.57793 97.7677ZM34.0239 138.379V171.208H21.3786H8.73332V138.379V105.549H21.3786H34.0239V138.379ZM96.5208 109.392C102.6 110.997 110.042 114.887 113.543 118.243C118.99 123.447 117.969 123.301 142.725 123.447C157.024 123.545 164.562 123.739 165.486 124.128C169.134 125.587 170.496 131.667 167.967 135.363C167.286 136.384 166.167 137.406 165.535 137.698C164.805 137.941 154.446 138.135 140.828 138.135C118.115 138.135 117.288 138.184 116.072 139.108C113.349 141.248 114.224 144.993 117.726 145.917C119.088 146.306 127.015 146.403 142.919 146.306L166.07 146.112L169.961 144.798C172.101 144.118 175.067 142.804 176.527 141.88C178.034 141.005 187.859 133.272 198.413 124.761C208.967 116.249 218.256 108.954 218.986 108.565C222.293 106.911 226.573 109.538 227.594 113.817C228.324 116.882 227.643 119.459 225.551 121.405C222.293 124.469 162.568 172.91 160.088 174.466C156.245 176.947 151.576 178.941 146.372 180.303C140.196 181.956 128.815 182.394 122.298 181.275C117.434 180.4 118.796 180.838 82.6596 169.311L56.6395 160.994H49.4901H42.292V138.379V115.763H49.636H56.9799L62.184 113.526C73.127 108.711 76.7261 107.933 86.0641 108.176C90.6845 108.322 93.7972 108.711 96.5208 109.392Z" fill="white"/>
</svg>
