<svg width="220" height="208" viewBox="0 0 220 208" fill="none" xmlns="http://www.w3.org/2000/svg">
<path d="M99.4375 0.997004C99.1943 1.09427 97.7352 1.28882 96.2275 1.48336L93.5039 1.77518L94.0389 5.17968C94.3307 7.02783 94.7198 8.58418 94.963 8.63281C95.1575 8.63281 96.7139 8.48691 98.4648 8.29236L101.626 7.95191L101.334 4.98513C100.945 0.656554 100.848 0.510647 99.4375 0.997004Z" fill="white"/>
<path d="M108.436 4.158V7.5625H111.791H115.099L115.439 5.71434C115.585 4.74163 115.731 3.18529 115.731 2.30984V0.753499H112.083H108.436V4.158Z" fill="white"/>
<path d="M122.832 2.79521C122.686 3.67066 122.491 5.27564 122.443 6.34562L122.297 8.24242L125.604 8.82604C129.252 9.40967 129.057 9.55558 129.592 6.34562C129.738 5.27564 130.03 3.96247 130.127 3.37884C130.37 2.5034 130.127 2.30886 128.279 2.01704C127.112 1.8225 125.507 1.57932 124.631 1.43341C123.172 1.1416 123.075 1.23887 122.832 2.79521Z" fill="white"/>
<path d="M82.561 4.0602C81.0533 4.49792 79.6915 5.03291 79.5456 5.17882C79.3024 5.422 81.0533 11.9878 81.3451 11.9392C82.8041 11.696 87.4245 10.1397 87.5218 9.84785C87.8136 8.92377 86.4032 3.18475 85.8682 3.23339C85.5764 3.23339 84.0687 3.62247 82.561 4.0602Z" fill="white"/>
<path d="M136.692 7.31722C136.109 9.11674 135.671 10.6731 135.671 10.7217C135.671 10.9649 142.042 13.0076 142.188 12.8617C142.82 12.0349 144.474 7.0254 144.231 6.63632C144.036 6.39314 142.772 5.80951 141.361 5.32315C139.999 4.88543 138.589 4.39907 138.249 4.3018C137.908 4.1559 137.276 5.32315 136.692 7.31722Z" fill="white"/>
<path d="M156.73 37.8153L124.047 70.4985L121.129 67.7263L118.211 64.954H111.256H104.301L76.3356 36.9885C60.9667 21.6196 48.1755 9.02295 47.8837 9.02295C47.6405 9.02295 46.376 10.0443 45.1115 11.3088L42.7769 13.6433L59.4104 30.2768L76.0924 46.9588L53.2336 69.8176L30.3262 92.725L17.6323 81.0525L4.98699 69.4285L2.70111 71.7144C1.48522 72.9789 0.463867 74.1948 0.463867 74.4866C0.463867 74.7784 9.75329 83.5329 21.1341 93.9409L41.7556 112.86L41.8042 118.162V123.511L50.0237 131.78L58.2917 140.096L57.5136 141.555C55.5681 145.203 55.8113 149.921 58.1458 153.033C59.7508 155.222 62.8149 157.216 65.1494 157.605C66.803 157.897 67.0948 158.091 67.0948 159.113C67.0948 160.718 68.6025 163.587 70.3048 165.338C71.8611 166.895 75.0711 168.499 76.6274 168.548C77.4542 168.548 77.746 168.937 77.9406 170.396C78.5728 174.336 82.7069 178.47 86.6464 179.102C88.1541 179.297 88.4945 179.588 88.4945 180.415C88.4945 182.604 90.9263 186.446 93.2122 187.954C95.8872 189.753 97.8812 190.191 101.578 189.753C103.961 189.461 104.496 189.559 105.225 190.386C106.782 192.088 110.867 193.498 114.32 193.547C120.156 193.547 120.302 193.45 143.988 169.667C167.333 146.224 166.798 146.905 166.798 140.874V138.151L193.159 111.79L219.568 85.381L216.99 82.852L214.461 80.2743L188.927 105.808L163.394 131.342L148.073 116.022L132.753 100.701L135.039 98.4154L137.373 96.0809L134.796 93.5518L132.267 90.9741L126.333 96.8591C123.026 100.118 119.67 103.23 118.795 103.814C116.363 105.468 113.347 106.343 110.089 106.392C106.976 106.392 101.918 105.176 101.334 104.3C101.14 103.96 120.4 84.3597 147.781 56.9778L194.52 10.2388L191.991 7.66115L189.414 5.1321L156.73 37.8153ZM85.9655 56.8319L90.44 61.3064L67.873 83.8733L45.306 106.44L40.637 102.16C38.0593 99.8258 35.9679 97.7345 35.9679 97.5886C35.9679 97.2481 80.8587 52.3087 81.1992 52.3087C81.3451 52.3087 83.485 54.3514 85.9655 56.8319ZM108.387 72.1521L115.585 72.298L117.238 74.0003L118.843 75.6539L105.42 89.1746C98.0271 96.5672 91.9477 102.987 91.899 103.376C91.6559 105.127 91.9963 106.003 93.504 107.364C99.3403 112.909 108.63 115 116.509 112.568C120.302 111.401 122.296 110.331 125.506 107.705L127.695 105.857L143.404 121.566C156.439 134.6 159.162 137.567 159.503 139.026C160.427 143.16 160.67 142.82 138.492 164.998C124.047 179.443 117.433 185.717 116.314 186.106C114.466 186.689 111.986 186.397 110.575 185.327C109.7 184.695 110.137 184.16 117.725 176.476C122.199 172.001 126.041 167.819 126.333 167.284C127.646 164.755 127.938 161.69 127.16 159.016C125.944 154.784 121.81 151.039 118.406 151.039C117.725 151.039 117.092 150.747 116.995 150.407C116.898 150.115 116.557 148.899 116.266 147.732C115.244 144.084 110.916 140.339 107.706 140.339C107.025 140.339 106.392 140.048 106.295 139.707C106.198 139.415 105.857 138.199 105.566 137.032C104.544 133.384 101.043 130.369 96.6653 129.445C95.7412 129.202 95.3035 128.813 95.3035 128.132C95.3035 126.624 93.9417 123.706 92.4827 122.198C89.6618 119.183 85.625 118.016 81.5883 118.94C79.2051 119.523 78.4756 120.107 71.2288 127.256L63.3985 134.989L56.249 127.791L49.0996 120.642V116.751V112.86L72.2988 89.661L95.5467 66.4131L98.3676 69.234L101.188 72.0062L108.387 72.1521ZM86.7436 126.77C87.765 127.548 88.0082 128.18 88.0082 129.785C88.0082 131.731 87.8136 132.023 78.6215 141.166C69.8184 150.018 69.1375 150.553 67.4353 150.553C64.3226 150.553 62.4258 147.586 63.8362 144.911C64.2739 144.133 68.6025 139.513 73.5147 134.6C83.2905 124.971 83.9228 124.581 86.7436 126.77ZM97.1517 137.227C98.8539 138.394 99.3403 140.096 98.5135 141.944C98.1244 142.82 93.7958 147.489 88.8836 152.352C80.5183 160.669 79.7887 161.253 78.1351 161.253C75.0224 161.253 73.1256 158.286 74.5361 155.611C74.9738 154.833 79.3024 150.212 84.2632 145.3C93.8445 135.816 94.574 135.379 97.1517 137.227ZM108.095 148.121C109.651 149.386 110.089 151.185 109.213 152.887C108.192 154.784 91.4127 171.32 89.9536 171.855C87.3273 172.828 84.2146 170.104 84.8955 167.429C85.0414 166.797 89.4672 161.982 94.7685 156.681C105.031 146.467 105.566 146.127 108.095 148.121ZM119.232 159.307C121.81 161.885 121.324 162.712 110.964 173.071C105.955 178.129 101.383 182.458 100.751 182.701C98.0271 183.771 94.6713 180.415 95.7899 177.643C95.9844 177.059 100.459 172.342 105.614 167.186C116.12 156.827 116.509 156.584 119.232 159.307Z" fill="white"/>
<path d="M68.7008 8.92455C66.9985 9.65408 65.6367 10.4323 65.6367 10.6754C65.6367 10.9186 66.2203 12.3777 66.9012 13.934C68.3603 17.0953 68.1658 17.0953 72.2512 15.2958C73.4184 14.7608 74.3912 14.1772 74.3912 13.9827C74.3912 13.2531 72.2512 7.56275 72.008 7.61138C71.8621 7.61138 70.3544 8.24365 68.7008 8.92455Z" fill="white"/>
<path d="M149.872 12.6684C148.17 16.1215 148.121 15.9756 152.012 17.921L154.493 19.1855L155.368 17.6292C155.854 16.7538 156.633 15.392 157.168 14.5165L158.092 12.9602L154.736 11.2579L151.429 9.60431L149.872 12.6684Z" fill="white"/>
<path d="M23.3226 55.0298C14.9086 58.6775 14.7141 70.6419 23.0308 74.4841C29.3048 77.4023 36.0652 74.095 37.962 67.1401C39.1779 62.7143 36.357 57.2184 31.8339 55.1757C29.4993 54.1058 25.6571 54.0085 23.3226 55.0298ZM30.1316 62.5197C33.0984 65.4865 28.5266 70.2042 25.3653 67.4806C23.809 66.216 23.5658 64.4165 24.7817 62.8602C26.0948 61.2066 28.6725 61.0607 30.1316 62.5197Z" fill="white"/>
<path d="M6.10479 100.213C5.91025 101.964 5.91025 103.617 6.05615 103.86C6.2507 104.152 7.85567 104.347 9.6552 104.347H12.9624L13.2542 101.088C13.4974 98.7536 13.4001 97.7322 12.9624 97.4404C12.6706 97.2459 11.017 97.0513 9.41202 97.0513H6.44524L6.10479 100.213Z" fill="white"/>
<path d="M206.192 107.702V111.009L208.769 111.349C213.779 111.933 213.487 112.127 213.487 107.993V104.346H209.839H206.192V107.702Z" fill="white"/>
<path d="M8.34231 111.496L6.25098 111.69L6.59143 115.192C6.78597 117.138 6.98051 118.791 7.07778 118.84C7.22369 119.083 13.6436 118.062 13.9354 117.818C14.0327 117.673 13.9841 116.165 13.7895 114.365L13.4491 111.155L11.9414 111.253C11.1145 111.301 9.50957 111.399 8.34231 111.496Z" fill="white"/>
<path d="M204.782 121.175C204.441 122.926 204.296 124.482 204.393 124.628C204.831 125.017 210.667 126.233 211.056 125.99C211.251 125.844 211.591 124.725 211.785 123.461C211.931 122.147 212.223 120.64 212.369 120.056C212.564 119.132 212.369 118.986 210.229 118.694C208.965 118.548 207.311 118.305 206.63 118.159C205.366 117.916 205.317 118.013 204.782 121.175Z" fill="white"/>
<path d="M11.3582 125.6L8.34277 126.281L9.21822 129.734C9.70457 131.582 10.1909 133.187 10.2882 133.285C10.4341 133.43 16.6108 131.631 16.9027 131.339C17.2917 130.999 15.3463 124.773 14.86 124.822C14.5681 124.871 12.9632 125.211 11.3582 125.6Z" fill="white"/>
<path d="M201.379 134.599C200.795 136.252 200.503 137.76 200.698 137.955C201.038 138.247 206.485 140.338 206.923 140.338C207.361 140.338 209.16 133.869 208.82 133.529C208.431 133.14 203.519 131.583 202.74 131.583C202.546 131.583 201.914 132.945 201.379 134.599Z" fill="white"/>
<path d="M16.0764 139.172C14.3255 139.853 12.8664 140.437 12.7691 140.534C12.6232 140.68 15.0064 146.759 15.3468 147.1C15.4441 147.197 16.9518 146.662 18.654 145.884C22.1558 144.328 22.1072 144.522 20.259 140.34L19.189 138.005L16.0764 139.172Z" fill="white"/>
<path d="M196.078 147.438L194.522 150.551L195.64 151.086C196.224 151.426 197.634 152.204 198.753 152.837L200.796 154.004L202.498 150.648L204.2 147.292L200.893 145.833L197.586 144.374L196.078 147.438Z" fill="white"/>
<path d="M21.7652 152.206C20.2089 153.033 18.9443 153.86 18.9443 154.054C18.9443 154.249 19.7225 155.708 20.6952 157.361L22.4461 160.328L23.662 159.501C24.3915 159.064 25.6561 158.285 26.5801 157.75C27.4556 157.215 28.1851 156.583 28.1851 156.291C28.1851 155.659 25.1211 150.552 24.7806 150.601C24.6347 150.65 23.2729 151.379 21.7652 152.206Z" fill="white"/>
<path d="M189.268 158.915C188.489 160.082 187.711 161.25 187.517 161.59C187.322 161.93 188.246 162.952 189.948 164.265L192.672 166.308L194.034 164.654C194.812 163.73 195.785 162.368 196.222 161.639L197.001 160.277L194.326 158.575C192.867 157.65 191.408 156.872 191.164 156.872C190.873 156.872 190.046 157.796 189.268 158.915Z" fill="white"/>
<path d="M29.5476 164.218L26.7754 166.261L28.2831 168.4C31.1526 172.34 31.2012 172.34 33.9735 169.957C35.3353 168.79 36.4053 167.574 36.4053 167.331C36.4053 167.039 35.5298 165.774 34.3626 164.51L32.3199 162.175L29.5476 164.218Z" fill="white"/>
<path d="M180.319 170.2L178.033 172.778L180.367 175.064C181.583 176.279 182.799 177.301 182.945 177.301C183.14 177.301 184.356 176.134 185.717 174.723L188.149 172.194L185.62 169.908C184.21 168.644 182.945 167.622 182.799 167.574C182.653 167.574 181.535 168.741 180.319 170.2Z" fill="white"/>
<path d="M38.983 175.014L36.4053 177.64L38.9343 179.926C40.2961 181.191 41.7066 182.115 41.9497 182.017C42.2416 181.92 43.3602 180.801 44.4302 179.537L46.3756 177.251L43.9438 174.819L41.5607 172.436L38.983 175.014Z" fill="white"/>
<path d="M170.446 179.293C169.132 180.412 167.917 181.385 167.819 181.482C167.576 181.676 171.564 187.026 171.953 187.026C172.342 187.026 177.498 182.941 177.498 182.649C177.498 182.455 176.476 181.19 175.212 179.828L172.877 177.299L170.446 179.293Z" fill="white"/>
<path d="M50.0229 183.965C49.0988 185.23 48.2234 186.494 48.0288 186.834C47.7856 187.175 48.7097 188.148 50.5092 189.412C52.1142 190.482 53.476 191.406 53.6219 191.406C53.9137 191.406 57.5128 185.521 57.3182 185.375C57.221 185.327 55.9564 184.451 54.546 183.479C53.1842 182.506 51.9197 181.679 51.871 181.679C51.7738 181.679 50.947 182.7 50.0229 183.965Z" fill="white"/>
<path d="M158.92 187.32L156.099 189.023L157.266 191.309C159.454 195.54 159.357 195.491 162.421 193.594C163.88 192.67 165.291 191.844 165.534 191.746C165.923 191.6 162.421 185.618 161.935 185.618C161.789 185.618 160.427 186.348 158.92 187.32Z" fill="white"/>
<path d="M61.7923 192.133C60.8682 193.836 60.1873 195.343 60.3332 195.489C60.9168 196.024 65.6831 198.213 66.2668 198.213C66.8018 198.213 69.7685 192.425 69.3795 192.133C69.2822 192.036 64.6132 189.556 63.6891 189.118C63.5432 189.021 62.7164 190.383 61.7923 192.133Z" fill="white"/>
<path d="M146.467 193.546C145.057 194.129 143.89 194.859 143.89 195.102C143.938 196.221 145.981 201.133 146.419 201.133C147.002 201.133 151.817 199.187 152.352 198.701C152.839 198.263 150.261 192.378 149.58 192.378C149.288 192.427 147.878 192.913 146.467 193.546Z" fill="white"/>
<path d="M74.7296 198.068L73.5137 201.375L76.9182 202.543C78.7663 203.126 80.3713 203.564 80.5172 203.418C80.6631 203.321 81.1495 201.764 81.6358 200.062L82.5599 196.901L79.7877 196.025C78.28 195.539 76.8209 195.101 76.5291 194.955C76.2373 194.858 75.4591 196.22 74.7296 198.068Z" fill="white"/>
<path d="M132.753 197.972C131.537 198.264 130.564 198.75 130.564 198.993C130.613 200.404 131.44 204.441 131.732 204.976C132.024 205.462 132.753 205.413 135.233 204.781C136.936 204.343 138.492 203.808 138.638 203.662C138.784 203.468 138.541 201.96 138.006 200.258C136.984 196.902 136.887 196.853 132.753 197.972Z" fill="white"/>
<path d="M88.4937 201.86C88.1532 203.708 88.056 205.265 88.2991 205.508C88.8828 206.043 94.4759 206.967 94.9136 206.578C95.1081 206.383 95.4 204.778 95.5945 203.027L95.8863 199.818L94.0382 199.526C92.9682 199.331 91.4605 199.088 90.6337 198.893L89.126 198.602L88.4937 201.86Z" fill="white"/>
<path d="M122.054 200.061C116.704 200.596 116.704 200.596 116.704 202.25C116.704 203.126 116.85 204.633 116.996 205.606C117.288 207.357 117.434 207.454 119.087 207.454C120.06 207.454 121.665 207.308 122.686 207.114L124.534 206.822L124.194 204.098C123.756 200.402 123.464 199.916 122.054 200.061Z" fill="white"/>
<path d="M102.6 204.294V207.941H106.247H109.895V204.294V200.646H106.247H102.6V204.294Z" fill="white"/>
</svg>
