<svg width="18" height="18" viewBox="0 0 18 18" fill="none" xmlns="http://www.w3.org/2000/svg">
<path d="M5.54092 1.19806C5.69844 1.19806 5.85299 1.13388 5.96438 1.02255C6.07638 0.911152 6.13989 0.756545 6.13989 0.599091C6.13989 0.441515 6.07632 0.28703 5.96438 0.175576C5.85299 0.0640606 5.69844 0 5.54092 0C5.38335 0 5.22886 0.0640606 5.11741 0.175455C5.00595 0.286909 4.94189 0.441455 4.94189 0.59897C4.94189 0.756485 5.00595 0.91103 5.11741 1.02242C5.22886 1.13388 5.38335 1.19806 5.54092 1.19806Z" fill="white"/>
<path d="M1.58731 6.91846C1.42974 6.91846 1.27525 6.98258 1.1638 7.09397C1.0524 7.20537 0.988281 7.35997 0.988281 7.51743C0.988281 7.675 1.0524 7.82949 1.1638 7.94088C1.27525 8.05227 1.4298 8.1164 1.58731 8.1164C1.74543 8.1164 1.89937 8.05221 2.01077 7.94088C2.12222 7.82949 2.18628 7.67494 2.18628 7.51743C2.18628 7.35991 2.12216 7.20537 2.01077 7.09397C1.89937 6.98252 1.74543 6.91846 1.58731 6.91846Z" fill="white"/>
<path d="M16.0231 10.4826C16.0231 10.325 15.9596 10.1705 15.8476 10.0591C15.7363 9.94761 15.5817 9.88354 15.4242 9.88354C15.2667 9.88354 15.1127 9.94761 15.0007 10.0591C14.8893 10.1705 14.8252 10.3251 14.8252 10.4826C14.8252 10.6401 14.8893 10.7946 15.0007 10.906C15.1128 11.0174 15.2673 11.0816 15.4242 11.0816C15.5817 11.0816 15.7363 11.0174 15.8476 10.906C15.9596 10.7947 16.0231 10.6401 16.0231 10.4826Z" fill="white"/>
<path d="M1.58731 13.837C1.42974 13.837 1.27525 13.9011 1.1638 14.0125C1.0524 14.1239 0.988281 14.2785 0.988281 14.436C0.988281 14.5935 1.0524 14.748 1.1638 14.8594C1.27525 14.9709 1.4298 15.0349 1.58731 15.0349C1.74543 15.0349 1.89937 14.9708 2.01077 14.8594C2.12283 14.748 2.18628 14.5935 2.18628 14.436C2.18628 14.2784 2.12277 14.1239 2.01077 14.0125C1.89937 13.901 1.74543 13.837 1.58731 13.837Z" fill="white"/>
<path d="M12.4589 16.802C12.3014 16.802 12.1468 16.8661 12.0354 16.9775C11.924 17.0889 11.8599 17.2435 11.8599 17.401C11.8599 17.5585 11.924 17.713 12.0354 17.8244C12.1468 17.9358 12.3014 17.9999 12.4589 17.9999C12.617 17.9999 12.771 17.9358 12.8823 17.8244C12.9938 17.713 13.0579 17.5584 13.0579 17.401C13.0579 17.2434 12.9943 17.0889 12.8823 16.9775C12.771 16.866 12.6171 16.802 12.4589 16.802Z" fill="white"/>
<path d="M16.4124 15.2596C16.2549 15.2596 16.1009 15.3237 15.9889 15.435C15.8775 15.5465 15.8135 15.701 15.8135 15.8586C15.8135 16.0161 15.8775 16.1706 15.9889 16.282C16.101 16.3935 16.2555 16.4575 16.4124 16.4575C16.57 16.4575 16.7245 16.3934 16.8358 16.282C16.9479 16.1706 17.0114 16.0161 17.0114 15.8586C17.0114 15.701 16.9478 15.5465 16.8358 15.435C16.7245 15.3237 16.57 15.2596 16.4124 15.2596Z" fill="white"/>
<path d="M16.4124 2.62067C16.5705 2.62067 16.7245 2.55655 16.8358 2.44515C16.9473 2.33376 17.0114 2.17921 17.0114 2.02176C17.0114 1.86418 16.9472 1.7097 16.8358 1.59824C16.7245 1.48679 16.5705 1.42273 16.4124 1.42273C16.2549 1.42273 16.1004 1.48679 15.9889 1.59824C15.8775 1.7097 15.8135 1.86424 15.8135 2.02176C15.8135 2.17927 15.8775 2.33382 15.9889 2.44515C16.1003 2.55661 16.2549 2.62067 16.4124 2.62067Z" fill="white"/>
<path d="M1.58731 1.42273C1.42974 1.42273 1.27525 1.48679 1.1638 1.59824C1.0524 1.7097 0.988281 1.86424 0.988281 2.02176C0.988281 2.17927 1.0524 2.33382 1.1638 2.44515C1.27525 2.55661 1.4298 2.62067 1.58731 2.62067C1.74483 2.62067 1.89937 2.55655 2.01077 2.44515C2.12283 2.33376 2.18628 2.17921 2.18628 2.02176C2.18628 1.86418 2.12277 1.7097 2.01077 1.59824C1.89937 1.48679 1.74483 1.42273 1.58731 1.42273Z" fill="white"/>
<path d="M10.1199 4.73687L13.6595 3.39966C13.8926 3.31166 14.0468 3.08845 14.0468 2.83936V0.599054C14.0468 0.402327 13.9502 0.218205 13.7884 0.106266C13.6266 -0.00555206 13.4203 -0.030946 13.2361 0.038751L4.34095 3.39905C4.10786 3.48711 3.95361 3.71027 3.95361 3.95942V6.19972C3.95361 6.39639 4.0224 6.63996 4.21204 6.69251C5.10925 6.94099 7.89876 7.65572 7.89876 7.65572L4.34095 8.99978C4.10786 9.08778 3.95361 9.31099 3.95361 9.56008V11.8004C3.95361 11.9971 4.02155 12.2437 4.21204 12.2932C5.31137 12.5791 7.88064 13.2632 7.88064 13.2632L4.34095 14.6004C4.10786 14.6884 3.95361 14.9117 3.95361 15.1607V17.4011C3.95361 17.5978 4.05022 17.7819 4.21204 17.8938C4.31355 17.964 4.43258 18.0001 4.5527 18.0001C4.62398 18.0001 4.69567 17.9873 4.76434 17.9614L13.6595 14.6011C13.8926 14.513 14.0468 14.2898 14.0468 14.0407V11.8004C14.0468 11.6037 13.9502 11.4195 13.7884 11.3076C13.7099 11.2534 13.6188 11.2308 13.5292 11.2074C12.7589 11.0067 10.1017 10.3444 10.1017 10.3444L13.6595 9.00039C13.8926 8.91233 14.0468 8.68917 14.0468 8.44008V6.19978C14.0468 6.00305 13.9502 5.81887 13.7884 5.70699C13.7181 5.65839 13.6376 5.63457 13.5576 5.61196C12.704 5.37111 10.1199 4.73687 10.1199 4.73687ZM12.8488 13.6266L5.15161 16.5344V15.5747L12.8488 12.667V13.6266ZM11.446 11.9163L9.84622 12.5207L6.53652 11.6912L8.13628 11.0869L11.446 11.9163ZM12.8488 8.02596L5.15161 10.9338V9.97414L12.8488 7.06633V8.02596ZM11.464 6.30881L9.86422 6.91317L6.5544 6.08378L8.15416 5.47942L11.464 6.30881ZM12.8488 2.4253L5.15161 5.33305V4.37342L12.8488 1.4656V2.4253Z" fill="white"/>
</svg>
