<svg width="11" height="9" viewBox="0 0 11 9" fill="none" xmlns="http://www.w3.org/2000/svg">
<path d="M1.12021 8.14486H1.60635C1.91123 8.14486 2.15017 7.90941 2.15017 7.60377V6.90984C3.06479 6.96766 4.38727 7.00897 5.44607 7.00897C6.509 7.00897 7.8315 6.96766 8.74609 6.90984V7.60377C8.74609 7.90941 8.98091 8.14486 9.28989 8.14486H9.77606C10.085 8.14486 10.324 7.90941 10.324 7.60377V5.22046C10.324 4.52654 10.1839 4.13415 9.80078 3.63849L9.45475 3.18827C9.3023 2.44477 9.03034 1.6641 8.88615 1.35846C8.66779 0.891705 8.23933 0.614964 7.69142 0.540611C7.41539 0.507584 6.51313 0.482788 5.44607 0.482788C4.38316 0.482788 3.4809 0.511708 3.20486 0.540611C2.65693 0.606698 2.22846 0.891705 2.01011 1.35846C1.86591 1.6641 1.594 2.44477 1.44156 3.18827L1.09548 3.63849C0.712346 4.13415 0.572266 4.52654 0.572266 5.22046V7.60377C0.572266 7.90941 0.811223 8.14486 1.12021 8.14486ZM2.27378 2.84544C2.37265 2.39107 2.57041 1.80042 2.70636 1.56085C2.81759 1.36671 2.93707 1.28411 3.15954 1.25519C3.47266 1.20975 4.17304 1.18498 5.44607 1.18498C6.72325 1.18498 7.42361 1.20149 7.73673 1.25519C7.95509 1.28823 8.07455 1.36671 8.1899 1.56085C8.33003 1.79628 8.51541 2.39107 8.62248 2.84544C8.6596 2.99825 8.59776 3.05609 8.43712 3.04368C7.75322 3.00239 6.93747 2.95696 5.44607 2.95696C3.9588 2.95696 3.14307 3.00239 2.45917 3.04368C2.29849 3.05609 2.24082 2.99825 2.27378 2.84544ZM2.44269 5.93918C2.05131 5.93918 1.75879 5.64177 1.75879 5.2535C1.75879 4.86112 2.05131 4.56785 2.44269 4.56785C2.83408 4.56785 3.12658 4.86112 3.12658 5.2535C3.12658 5.64177 2.83408 5.93918 2.44269 5.93918ZM8.45357 5.93918C8.06223 5.93918 7.76969 5.64177 7.76969 5.2535C7.76969 4.86112 8.06223 4.56785 8.45357 4.56785C8.84085 4.56785 9.1375 4.86112 9.1375 5.2535C9.1375 5.64177 8.84085 5.93918 8.45357 5.93918ZM4.35431 5.74916C4.06592 5.74916 3.86404 5.54265 3.86404 5.2535C3.86404 4.96025 4.06592 4.75784 4.35431 4.75784H6.54196C6.83037 4.75784 7.03224 4.96025 7.03224 5.2535C7.03224 5.54265 6.83037 5.74916 6.54196 5.74916H4.35431Z" fill="#BFBFBF"/>
</svg>
