<svg width="11" height="11" viewBox="0 0 11 11" fill="none" xmlns="http://www.w3.org/2000/svg">
<path d="M5.40487 8.47952L6.95596 7.02538L5.43349 6.36143L5.18327 6.23484L5.38403 6.04668L5.64766 5.79952L5.14159 5.3244L4.88857 5.56168L4.68784 5.7505L4.55281 5.51592L3.88346 4.14491L2.33236 5.59907L3.0325 6.74179L3.23463 6.55227L3.38377 6.41247L3.53287 6.55229L4.33862 7.30701L4.48776 7.4475L4.33864 7.58732L4.1266 7.78611L5.29001 8.37188L5.40487 8.47952ZM7.19746 6.79897L8.13241 5.92244L8.7484 5.34495L7.33905 4.63525L7.08813 4.50938L7.28957 4.3212L7.5532 4.074L7.04715 3.59956L6.7941 3.83613L6.59267 4.02498L6.45837 3.7904L5.69005 2.45123L5.05992 3.04197L4.12496 3.9185L4.79102 5.09317L4.99247 4.90431L5.14161 4.76447L5.29145 4.90428L6.09649 5.65898L6.24563 5.79946L6.09649 5.93928L5.88444 6.13809L7.19746 6.79897ZM10.3242 3.86763L7.25172 0.987154L5.9155 2.23986L6.69585 3.36767L6.89729 3.17882L7.04715 3.039L7.19627 3.17882L8.00134 3.93356L8.15118 4.07336L8.00134 4.21386L7.7893 4.41265L8.98799 5.12033L10.3242 3.86763Z" fill="#BFBFBF"/>
<path d="M5.19609 8.67525L3.64501 10.1294L3.53014 10.0217L2.36674 9.43599L2.57878 9.2372L2.7279 9.09738L2.57876 8.95688L1.773 8.20216L1.62391 8.06234L1.47477 8.20214L1.27263 8.39166L0.572494 7.24894L2.1236 5.79478L2.79295 7.16579L2.92797 7.40037L3.1287 7.21155L3.38173 6.97428L3.8878 7.4494L3.62417 7.69655L3.42341 7.88472L3.67363 8.0113L5.19609 8.67525Z" fill="#BFBFBF"/>
</svg>
