<svg width="40" height="30" viewBox="0 0 40 30" fill="none" xmlns="http://www.w3.org/2000/svg">
<path d="M38.5618 6.14562C38.4109 6.14562 38.2563 6.16731 38.1018 6.20976L36.3545 6.69096L34.5399 2.27075C34.026 1.01864 32.5065 0 31.1529 0H14.1717C12.8183 0 11.2986 1.01864 10.7846 2.27075L8.97256 6.68491L7.24699 6.20976C7.09253 6.16731 6.93791 6.14562 6.78701 6.14562C5.96125 6.14562 5.362 6.77648 5.362 7.64577V8.67587C5.362 8.71801 5.36541 8.75938 5.36835 8.80105C4.64903 9.25452 3.97386 9.78871 3.35787 10.4047C1.19262 12.5698 0 15.4489 0 18.5114C0 21.574 1.19262 24.4529 3.35803 26.618C5.52359 28.7834 8.40258 29.9762 11.4649 29.9762C14.5271 29.9762 17.4063 28.7836 19.5717 26.618C20.8339 25.356 21.7627 23.8503 22.3204 22.2081H33.0005V24.4009C33.0005 25.4155 33.826 26.2409 34.8406 26.2409H37.2437C38.2583 26.2409 39.0837 25.4155 39.0837 24.4009V15.6197C39.0837 14.362 38.6953 12.3924 38.2177 11.2291L37.9247 10.5158H38.1469C39.1615 10.5158 39.9869 9.69033 39.9869 8.67572V7.64561C39.9869 6.77648 39.3875 6.14562 38.5618 6.14562ZM13.0366 2.83081C13.344 2.08174 14.2582 1.46901 15.0677 1.46901H30.2568C31.0664 1.46901 31.9805 2.08174 32.2879 2.83081L35.0327 9.5165C35.3401 10.2656 34.9292 10.8783 34.1196 10.8783H20.0176C19.8733 10.7172 19.7255 10.5585 19.5715 10.4044C17.4058 8.23882 14.5268 7.04636 11.4647 7.04636C11.4109 7.04636 11.358 7.04946 11.3044 7.05023L13.0366 2.83081ZM11.4649 26.5448C9.31913 26.5448 7.30183 25.7089 5.78448 24.1916C4.26714 22.6744 3.43162 20.6573 3.43162 18.5114C3.43162 16.3655 4.26729 14.3483 5.78448 12.831C7.30183 11.3138 9.31913 10.4781 11.4649 10.4781C13.6106 10.4781 15.6279 11.3138 17.1452 12.831C18.6624 14.3483 19.4981 16.3655 19.4981 18.5114C19.4981 20.6573 18.6626 22.6744 17.1452 24.1916C15.6277 25.7089 13.6106 26.5448 11.4649 26.5448ZM35.5421 17.973C35.5421 18.3778 35.2109 18.7091 34.8061 18.7091H29.5923C29.1875 18.7091 28.8563 18.3778 28.8563 17.973V15.4706C28.8563 15.0658 29.1875 14.7346 29.5923 14.7346H34.8061C35.2109 14.7346 35.5421 15.0658 35.5421 15.4706V17.973Z" fill="#00ACC3"/>
<path d="M16.7564 13.8428C16.1005 13.3613 15.1782 13.5022 14.6964 14.1584L10.4891 19.8875L7.91325 18.014C7.25528 17.5351 6.33347 17.6806 5.85474 18.339C5.37602 18.9972 5.5215 19.9188 6.17978 20.3975L9.62364 22.9022C9.95425 23.143 10.3388 23.259 10.7202 23.259C11.2956 23.259 11.864 22.995 12.229 22.4977L17.0722 15.903C17.5538 15.247 17.4126 14.3246 16.7564 13.8428Z" fill="#00ACC3"/>
</svg>
