<svg width="11" height="20" viewBox="0 0 11 20" fill="none" xmlns="http://www.w3.org/2000/svg">
<path d="M7.57635 4.40468H5.90353V3.44789H6.59476V0H1.37665V3.44789H2.06789V4.40468H0V19.0984H11V7.29439L7.57635 4.40468ZM2.62226 1.24554H5.3493V2.20232H2.62226V1.24554ZM4.65799 3.44789V4.40468H3.31342V3.44789H4.65799ZM9.75454 17.8529H9.7545H1.24557V5.65021H2.06792H5.9036H7.12105L9.75454 7.87301V17.8529Z" fill="black"/>
<path d="M5.97229 9.42919L5.50013 8.88037L5.02797 9.42919C4.95956 9.50879 3.35156 11.3979 3.35156 13.1348C3.35156 14.3195 4.3154 15.2833 5.50013 15.2833C6.68487 15.2833 7.6487 14.3195 7.6487 13.1348C7.6487 11.3979 6.0407 9.50879 5.97229 9.42919ZM5.50013 14.0378C5.00219 14.0378 4.5971 13.6327 4.5971 13.1348C4.5971 12.3985 5.07911 11.5002 5.5008 10.8722C5.92216 11.4988 6.40317 12.3954 6.40317 13.1348C6.40317 13.6327 5.99807 14.0378 5.50013 14.0378Z" fill="black"/>
</svg>
