<svg width="8" height="17" viewBox="0 0 8 17" fill="none" xmlns="http://www.w3.org/2000/svg">
<path d="M6.04079 0H1.95886C0.876855 0 0 1.20351 0 2.28552V14.3671C0 15.4488 0.876855 16.3263 1.95886 16.3263H6.04079C7.12245 16.3263 8 15.4491 8 14.3671V2.28552C7.99931 1.20351 7.12245 0 6.04079 0ZM7.65669 4.92511V8.9744L6.70936 9.09624V7.42793L7.65669 4.92511ZM7.15959 3.73965C6.80691 5.09346 6.38931 6.69374 6.38931 6.69374H1.61L0.838671 3.73965C0.839018 3.73965 3.92259 2.69201 7.15959 3.73965ZM1.30105 7.53727V9.09659L0.35338 8.97544V5.0341L1.30105 7.53727ZM0.35338 13.1695V9.57355L1.30105 9.69261V12.5377L0.35338 13.1695ZM0.893864 14.1914L1.6638 13.0334H6.44415L7.21444 14.1914H0.893864ZM6.70936 12.4291V9.69643L7.65669 9.5732V13.0612L6.70936 12.4291Z" fill="black"/>
</svg>
