<svg width="18" height="18" viewBox="0 0 18 18" fill="none" xmlns="http://www.w3.org/2000/svg">
<path d="M15.364 2.63602C13.6641 0.936141 11.404 0 9 0C6.59602 0 4.33593 0.936141 2.63602 2.63602C0.936141 4.33593 0 6.59602 0 9C0 11.404 0.936141 13.6641 2.63602 15.364C4.33593 17.0639 6.59602 18 9 18C11.404 18 13.6641 17.0639 15.364 15.364C17.0639 13.6641 18 11.404 18 9C18 6.59602 17.0639 4.33593 15.364 2.63602ZM9 16.8261C4.68471 16.8261 1.1739 13.3153 1.1739 9C1.1739 4.68468 4.68471 1.1739 9 1.1739C13.3153 1.1739 16.8261 4.68471 16.8261 9C16.8261 13.3153 13.3153 16.8261 9 16.8261Z" fill="black"/>
<path d="M9.58797 2.33594H8.41406V4.26858H9.58797V2.33594Z" fill="black"/>
<path d="M5.55906 3.26359L4.60938 3.95361L5.74538 5.51712L6.69507 4.8271L5.55906 3.26359Z" fill="black"/>
<path d="M2.84322 6.382L2.48047 7.49854L4.31867 8.09574L4.68142 6.97921L2.84322 6.382Z" fill="black"/>
<path d="M4.31867 9.90377L2.48047 10.501L2.84322 11.6175L4.68142 11.0203L4.31867 9.90377Z" fill="black"/>
<path d="M13.6811 9.90297L13.3184 11.0195L15.1566 11.6167L15.5193 10.5002L13.6811 9.90297Z" fill="black"/>
<path d="M15.1585 6.38228L13.3203 6.97949L13.6831 8.09606L15.5213 7.49885L15.1585 6.38228Z" fill="black"/>
<path d="M12.4426 3.26413L11.3066 4.82764L12.2563 5.51766L13.3923 3.95415L12.4426 3.26413Z" fill="black"/>
<path d="M5.95312 11.7974V15.385H12.0509V11.7974H5.95312ZM10.877 14.211H7.12703V12.9713H10.877V14.211H10.877Z" fill="black"/>
<path d="M9.58812 8.22171V5.33057H8.41422V8.22171C7.87622 8.45079 7.49805 8.98474 7.49805 9.60543C7.49805 10.4342 8.17234 11.1085 9.00115 11.1085C9.82996 11.1085 10.5043 10.4342 10.5043 9.60543C10.5043 8.98478 10.1261 8.45082 9.58812 8.22171ZM9.00115 9.93466C8.81964 9.93466 8.67195 9.78697 8.67195 9.60546C8.67195 9.42395 8.81964 9.27626 9.00115 9.27626C9.18266 9.27626 9.33036 9.42395 9.33036 9.60546C9.33036 9.78697 9.18266 9.93466 9.00115 9.93466Z" fill="black"/>
</svg>
