<svg width="18" height="18" viewBox="0 0 18 18" fill="none" xmlns="http://www.w3.org/2000/svg">
<path d="M12.6755 4.63281V8.41316H9.58688V4.63281H8.41295V8.41316H5.32433V4.63281H4.15039V13.3675H5.32433V9.5871H8.41295V13.3675H9.58688V9.5871H13.8494V4.63281H12.6755Z" fill="black"/>
<path d="M15.364 2.63602C13.6641 0.936141 11.404 0 9 0C6.59602 0 4.33593 0.936141 2.63602 2.63602C0.936141 4.33593 0 6.59598 0 9C0 11.404 0.936141 13.6641 2.63602 15.364C4.33593 17.0639 6.59602 18 9 18C11.404 18 13.6641 17.0639 15.364 15.364C17.0639 13.6641 18 11.404 18 9C18 6.59598 17.0639 4.33593 15.364 2.63602ZM9 16.8261C4.68471 16.8261 1.1739 13.3153 1.1739 9C1.1739 4.68468 4.68471 1.1739 9 1.1739C13.3153 1.1739 16.8261 4.68471 16.8261 9C16.8261 13.3153 13.3153 16.8261 9 16.8261Z" fill="black"/>
<path d="M13.8439 12.3478C14.0494 12.2033 14.1714 11.9594 14.1714 11.6961C14.1714 11.3076 13.8503 10.9062 13.4041 10.9062H12.3574V13.1857H12.9835V12.4859H13.2178L13.6513 13.1857H14.3576L13.8439 12.3478ZM13.3784 11.9401H12.9835V11.4521H13.3623C13.4394 11.4521 13.5357 11.5387 13.5357 11.6961C13.5357 11.8502 13.4555 11.9401 13.3784 11.9401Z" fill="black"/>
</svg>
