<svg width="6" height="6" viewBox="0 0 6 6" fill="none" xmlns="http://www.w3.org/2000/svg">
<path d="M3 0C2.20435 0 1.44129 0.31607 0.87868 0.87868C0.31607 1.44129 0 2.20435 0 3C0 3.79565 0.31607 4.55871 0.87868 5.12132C1.44129 5.68393 2.20435 6 3 6C3.79565 6 4.55871 5.68393 5.12132 5.12132C5.68393 4.55871 6 3.79565 6 3C6 2.20435 5.68393 1.44129 5.12132 0.87868C4.55871 0.31607 3.79565 0 3 0ZM3.25928 1C3.38109 1 3.47994 1.03597 3.55566 1.1084C3.63138 1.18083 3.66895 1.27491 3.66895 1.39014C3.66895 1.5317 3.61976 1.65013 3.521 1.74561C3.42552 1.83779 3.3055 1.88379 3.16064 1.88379C3.03883 1.88379 2.93998 1.84782 2.86426 1.77539C2.78854 1.69967 2.75049 1.604 2.75049 1.48877C2.75049 1.34721 2.79857 1.23036 2.89404 1.13818C2.99281 1.046 3.11442 1 3.25928 1ZM2.69629 2.37793H3.46191L3.09619 5H2.33105L2.69629 2.37793Z" fill="#777777"/>
</svg>
