<svg width="13" height="10" viewBox="0 0 13 10" fill="none" xmlns="http://www.w3.org/2000/svg">
<path d="M0.123047 0.233398V9.31306H12.7978V0.233398H0.123047ZM2.10705 1.7848H1.57997V2.04336H0.804271V2.54558H1.57997V2.79917H2.10207V6.71745H1.59489V6.97602H0.819188V7.47823H1.59986V7.73183H2.10705V8.78598H0.491007V0.745559H2.10705V1.7848ZM3.99657 8.81085H2.34573V7.75669H2.90761V7.46829H3.66342V6.96607H2.90761V6.7274H2.34573V2.80912H2.88772V2.54061H3.64353V2.03839H2.89269V1.79972H2.3507V0.760477H3.99657V8.81085ZM4.73746 8.79593H4.34962V0.745559H4.73746V8.79593ZM6.78611 8.79593H6.25903V0.745559H6.78611V8.79593ZM8.85961 8.79593H8.32756V0.745559H8.85464V8.79593H8.85961ZM10.9182 8.79593H10.3911V0.745559H10.9182V8.79593Z" fill="#777777"/>
</svg>
