<svg width="22" height="21" viewBox="0 0 22 21" fill="none" xmlns="http://www.w3.org/2000/svg">
<path d="M15.8543 0C16.6143 0 17.323 0.366419 17.7608 0.975571L17.8645 1.13284L20.7054 5.84556C20.9864 6.31181 21.1538 6.83571 21.1959 7.37536L21.2065 7.6463V18.6667C21.2065 19.8968 20.2502 20.9045 19.0372 20.9936L18.8622 21H2.4522C1.21633 21 0.203832 20.0482 0.11434 18.8408L0.10791 18.6667V7.6463C0.10791 7.10257 0.235165 6.5676 0.478019 6.0833L0.609025 5.84556L3.44993 1.13284C3.84101 0.484096 4.52129 0.0677731 5.27131 0.0075622L5.46014 0H15.8543ZM18.8622 8.16667H2.4522V18.6667H18.8622V8.16667ZM9.48506 2.33333H5.46014L3.35028 5.83333H9.48506V2.33333ZM15.8543 2.33333H11.8293V5.83333H17.9641L15.8543 2.33333Z" fill="#09244B"/>
</svg>
