<svg width="41" height="41" viewBox="0 0 41 41" fill="none" xmlns="http://www.w3.org/2000/svg">
<path d="M20.5 0C23.0625 0 25.1381 2.81021 27.4102 3.77542C29.6823 4.74063 33.2356 4.21104 34.961 6.03896C36.6865 7.86688 36.2508 11.2238 37.2246 13.5898C38.1983 15.9558 41 17.9375 41 20.5C41 23.0625 38.1898 25.1381 37.2246 27.4102C36.2594 29.6823 36.789 33.2356 34.961 34.961C33.1331 36.6865 29.7763 36.2679 27.4102 37.2246C25.0442 38.1813 23.0625 41 20.5 41C17.9375 41 15.8619 38.1898 13.5898 37.2246C11.3177 36.2594 7.76437 36.789 6.03896 34.961C4.31354 33.1331 4.73208 29.7763 3.77542 27.4102C2.81875 25.0442 0 23.0625 0 20.5C0 17.9375 2.81021 15.8619 3.77542 13.5898C4.74063 11.3177 4.21104 7.76437 6.03896 6.03896C7.86688 4.31354 11.2238 4.73208 13.5898 3.77542C15.9558 2.81875 17.9375 0 20.5 0ZM20.5 6.47458C17.726 6.47458 15.0144 7.29716 12.7079 8.83829C10.4014 10.3794 8.60375 12.5699 7.5422 15.1327C6.48065 17.6955 6.2029 20.5156 6.74408 23.2362C7.28525 25.9569 8.62104 28.456 10.5825 30.4175C12.544 32.379 15.0431 33.7148 17.7638 34.2559C20.4844 34.7971 23.3045 34.5193 25.8673 33.4578C28.4301 32.3962 30.6206 30.5986 32.1617 28.2921C33.7028 25.9856 34.5254 23.274 34.5254 20.5C34.5142 16.7837 33.0329 13.2228 30.405 10.595C27.7772 7.96714 24.2163 6.48585 20.5 6.47458ZM27.0087 14.2902L28.384 15.5885C28.5246 15.7741 28.6007 16.0006 28.6007 16.2334C28.6007 16.4663 28.5246 16.6928 28.384 16.8783L19.7142 26.539C19.5428 26.7333 19.3307 26.8876 19.0931 26.9909C18.8554 27.0942 18.598 27.1441 18.339 27.1369C18.0812 27.1354 17.8264 27.0817 17.59 26.9789C17.3537 26.8762 17.1406 26.7265 16.9638 26.539L12.2744 21.8667C12.1885 21.7931 12.1181 21.7031 12.0672 21.6021C12.0163 21.501 11.9861 21.3909 11.9781 21.2781C11.9702 21.1652 11.9847 21.0519 12.0209 20.9448C12.0571 20.8376 12.1142 20.7387 12.189 20.6538L12.2744 20.5598L13.6667 19.27C13.8343 19.0896 14.0661 18.9823 14.3121 18.9711C14.5582 18.9599 14.7987 19.0458 14.9821 19.2102L15.0419 19.27L18.3646 22.6867L25.7019 14.3158C25.8738 14.1428 26.1062 14.0433 26.3501 14.0385C26.594 14.0337 26.8302 14.124 27.0087 14.2902Z" fill="#00ACC4"/>
</svg>
