<svg width="31" height="31" viewBox="0 0 31 31" fill="none" xmlns="http://www.w3.org/2000/svg">
<path d="M26.46 15.1198C26.46 21.3827 21.3829 26.4598 15.12 26.4598C12.7313 26.4598 10.515 25.7212 8.68709 24.4599L4.81094 25.4289L5.82667 21.6199C4.5369 19.7793 3.78003 17.5379 3.78003 15.1198C3.78003 8.85687 8.85712 3.77979 15.12 3.77979C21.3829 3.77979 26.46 8.85687 26.46 15.1198Z" fill="url(#paint0_linear_1156_1928)"/>
<path fill-rule="evenodd" clip-rule="evenodd" d="M15.1201 28.3501C22.4269 28.3501 28.3501 22.4269 28.3501 15.1201C28.3501 7.81341 22.4269 1.89014 15.1201 1.89014C7.81341 1.89014 1.89014 7.81341 1.89014 15.1201C1.89014 17.4929 2.51478 19.7198 3.60859 21.6454L1.89014 28.3501L8.80268 26.7472C10.68 27.7693 12.8322 28.3501 15.1201 28.3501ZM15.1201 26.3148C21.3028 26.3148 26.3148 21.3028 26.3148 15.1201C26.3148 8.93752 21.3028 3.92553 15.1201 3.92553C8.93752 3.92553 3.92553 8.93752 3.92553 15.1201C3.92553 17.5073 4.67269 19.7199 5.94593 21.5369L4.94321 25.297L8.76967 24.3404C10.5741 25.5856 12.762 26.3148 15.1201 26.3148Z" fill="white"/>
<path d="M11.8126 8.97753C11.4981 8.34572 11.0155 8.40166 10.528 8.40166C9.65682 8.40166 8.29834 9.4452 8.29834 11.3874C8.29834 12.979 8.99972 14.7213 11.3631 17.3277C13.644 19.8431 16.6409 21.1443 19.1289 21.1C21.6169 21.0558 22.1288 18.9147 22.1288 18.1917C22.1288 17.8712 21.9299 17.7113 21.793 17.6679C20.9451 17.2609 19.3813 16.5028 19.0256 16.3604C18.6698 16.2179 18.484 16.4106 18.3685 16.5154C18.0459 16.8228 17.4063 17.7291 17.1872 17.9329C16.9683 18.1368 16.6418 18.0336 16.5059 17.9566C16.0059 17.7559 14.6503 17.1529 13.5698 16.1054C12.2334 14.81 12.1549 14.3642 11.9032 13.9675C11.7018 13.6501 11.8496 13.4554 11.9233 13.3703C12.2113 13.0381 12.6088 12.5252 12.7871 12.2703C12.9654 12.0153 12.8239 11.6284 12.7389 11.3874C12.3737 10.3507 12.0642 9.48293 11.8126 8.97753Z" fill="white"/>
<defs>
<linearGradient id="paint0_linear_1156_1928" x1="25.0425" y1="6.61478" x2="3.78003" y2="26.4598" gradientUnits="userSpaceOnUse">
<stop stop-color="#5BD066"/>
<stop offset="1" stop-color="#27B43E"/>
</linearGradient>
</defs>
</svg>
